<?xml version="1.0" encoding="utf-8"?>
<!-- Generator: Adobe Illustrator 21.0.2, SVG Export Plug-In . SVG Version: 6.00 Build 0)  -->
<svg version="1.1" id="Layer_1" xmlns="http://www.w3.org/2000/svg" xmlns:xlink="http://www.w3.org/1999/xlink" x="0px" y="0px"
	 viewBox="0 0 864 111" style="enable-background:new 0 0 864 111;" xml:space="preserve">
<style type="text/css">
	.st0{fill:#D52027;stroke:#D52027;stroke-width:0.5;stroke-miterlimit:10;}
	.st1{font-family:'FjallaOne-Regular';}
	.st2{font-size:39px;}
	.st3{fill:#E1E1E1;}
	.st4{fill:#CDCDCD;stroke:#CDCDCD;stroke-width:0.5;stroke-miterlimit:10;}
	.st5{font-size:19px;}
	.st6{fill:none;enable-background:new    ;}
	.st7{font-size:40px;}
	.st8{font-size:16.8024px;}
	.st9{fill:#FFFFFF;}
	.st10{fill:#241F21;}
	.st11{fill:#CF262E;}
	.st12{fill:none;stroke:#000000;stroke-width:0.135;stroke-miterlimit:10;}
</style>
<g id="Team_Canada_Logo">
	<text id="TEAM_CANADA_1972" transform="matrix(1 0 0 1 17.448 44.561)" class="st0 st1 st2">TEAM CANADA 1972</text>
	<path id="Shape_2_copy_4" class="st3" d="M2,57v-1h318v1H2z"/>
	<text id="_1972_SUMMIT_SERIES_HOCKEY_TEAM_INC." transform="matrix(1 0 0 1 19.07 88.279)" class="st4 st1 st5">1972 SUMMIT SERIES HOCKEY TEAM INC.</text>
	<path id="Shape_2_copy_3" class="st3" d="M2,99v-1h318v1H2z"/>
</g>
<image style="display:none;overflow:visible;" width="108" height="109" xlink:href="C90F0B5FE6891002.png"  transform="matrix(1 0 0 1 378 2)">
</image>
<path class="st6" d="z"/>
<g id="Equipe_Canada_Logo">
	<text id="ÉQUIPE_CANADA_1972" transform="matrix(1 0 0 1 546.447 44.562)" class="st0 st1 st7">ÉQUIPE CANADA 1972</text>
	<path id="Shape_2_copy_2" class="st3" d="M544,57v-1h318v1H544z"/>
	
		<text id="ÉQUIPE_DE_HOCKEY_DE_LA_SÉRIE_DU_SIÉCLE_1972_INC." transform="matrix(1 0 0 1 544.0703 86.0781)" class="st4 st1 st8">ÉQUIPE DE HOCKEY DE LA SÉRIE DU SIÉCLE 1972 INC.</text>
	<path id="Shape_2_copy_2-2" class="st3" d="M544,100v-1h318v1H544z"/>
</g>
<g>
	<path id="XMLID_118_" d="M421.5,102.2c-1.2-0.3-2.3-0.5-3.5-0.8c0-0.1,0-0.1,0-0.2c1.2,0.2,2.4,0.1,3.5,0.7
		C421.5,102,421.5,102.1,421.5,102.2 M415.2,106.6c0.1,0,0.3,0.2,0.3,0.3c0,0.1-0.1,0.3-0.2,0.3c-0.5-0.1-1-0.2-1.5-0.3
		c0,0,0-0.1,0-0.3C414.3,106.6,414.7,106.5,415.2,106.6 M411.5,106.4c-1.2-0.2-2.5-0.4-3.7-0.7c-0.1,0-0.3-0.2-0.3-0.4
		c0-0.2,0.2-0.5,0.3-0.5c0.4-0.1,0.9-0.1,1.5-0.2c0.4,0.2,0.9,0.4,1.4,0.6c0.4,0.2,0.7,0.4,1,0.7c0.1,0.1,0.1,0.2,0.2,0.4
		C411.8,106.3,411.6,106.4,411.5,106.4 M470.7,5.6h-25l-13,11.3V30v0.9L448,31l6.2,0v0v-3.7h2.7h3.2h0.4v2.1V31l-13.8,14.3
		c-0.1,0-0.3-0.1-0.4-0.1c-1.9-0.3-3.4,0.4-4.9,1.5c-0.4,0.3-0.6,0.3-0.9-0.1c-0.4-0.5-0.8-1.1-1.4-1.5c-1.2-0.8-2.4-1.5-3.7-2.3
		c-0.5-0.3-1-0.6-1.3-1.1c-0.1-0.2-0.3-0.3-0.4-0.4c-1-0.6-2.1-0.7-3.2-0.5c-1.8,0.3-2.7,1.7-2.5,3.3c0.2,1.4,0.5,2.8,1.4,3.9
		c0.6,0.8,0.3,1.9-0.4,2.4c-0.3,0.2-0.5,0.5-0.8,0.7c-1.5,1.4-3,2.8-4.5,4.1c-0.3,0.2-0.7,0.3-1,0.5c-0.4,0.2-0.8,0.3-1.1,0.6
		c-0.3,0.2-0.5,0.6-0.8,0.9c-0.7,0.8-1.4,1.6-2.1,2.4l8.1-26.6l2.1-7V5.5H380h0c-0.1,0-0.1,25.4-0.1,25.4h20.3v-3.6h6.3L393.2,69
		h-5.8v19.6h28.2c-0.2,0.3-0.4,0.7-0.7,1c-1.5,2.1-3.1,4.2-4.2,6.6c-0.1,0.1-0.2,0.3-0.4,0.3c-0.4,0-0.6,0.2-0.7,0.5
		c-0.3,0.6-0.6,1.2-1,1.8c-0.2,0.4-0.5,0.8-0.9,1c-1.2,0.6-1.8,1.7-2.4,2.8c-0.1,0.2-0.1,0.5,0,0.6c0.2,0.3,0.4,0.6,0.6,0.9
		c0.3,0.4,0.2,0.8,0,1.1c-0.1,0.1-0.5,0.2-0.7,0.1c-0.3,0-0.6-0.1-0.9-0.2c-0.4,0-0.6,0.2-0.6,0.6c0,0.4,0.3,0.5,0.6,0.6
		c1.2,0.3,2.4,0.6,3.5,0.8c1.3,0.3,2.7,0.5,4,0.8c1.1,0.2,2.3,0.4,3.4,0.5h0.1c0.5-0.1,0.7-0.5,0.8-1c0-0.2,0-0.5,0.1-0.7
		c0.1-0.2,0.2-0.4,0.3-0.5c0.6-0.3,0.7-0.8,0.7-1.3c0-0.6-0.4-0.7-0.8-1c-1-0.6-2.1-1.1-3.1-1.8c-0.8-0.5-0.8-0.9-0.1-1.6
		c1.1-1.2,2.1-2.4,3.3-3.5c2.3-2.2,4.6-4.3,6.9-6.4c1.5-1.4,2.8-2.8,3.7-4.6c0.2-0.4,0.3-0.8,0.3-1.2c0.1-0.5,1-1.4,1.5-1.3
		c0.1,0,0.3,0.2,0.4,0.3c0.2,0.3,0.4,0.6,0.6,0.9c0.2,0.3,0.2,0.5-0.1,0.7c-0.5,0.4-1,0.8-1.5,1.3c-1.5,1.4-3,2.7-4.4,4.1
		c-1.2,1.3-2.3,2.8-3.5,4.1c-0.9,1-2,1.9-3,2.8c-1.1,1-1.3,1.6-0.7,2.9c0.1,0.3,0,0.6-0.4,0.5c-0.3,0-0.5-0.2-0.8-0.1
		c-0.2,0.1-0.4,0.3-0.6,0.5c0.1,0.1,0.2,0.3,0.4,0.4c0.8,0.2,1.6,0.5,2.4,0.7c1.9,0.4,3.9,0.8,5.8,1.3c1.2,0.3,2.3,0.2,3.1-0.9
		c0.1-0.2,0.4-0.3,0.5-0.5c0.5-0.5,0.5-1.1-0.1-1.5c-0.3-0.2-0.7-0.4-1-0.6c-0.6-0.2-1.2-0.4-1.8-0.7c-0.4-0.2-0.5-0.4-0.4-0.9
		c0.3-0.9,0.6-1.7,1.4-2.2c0.6-0.4,1.3-0.9,1.9-1.3c2.2-1.5,4.4-2.9,6.6-4.4c0.9-0.6,1.6-1.4,2.4-2.1c0,0,0.1-0.1,0.1-0.1h10.9
		c0.2,0.3,0.3,0.6,0.5,0.9c0.9,1.7,1.7,3.4,2.5,5.1c0.6,1.2,0.5,1.4,1.9,0.3c0.2-0.2,0.5-0.6,0.5-0.9c-0.1-0.9-0.3-1.7-0.9-2.4
		c-0.3-0.4-0.5-0.4-0.8,0c-0.2,0.3-0.4,0.5-0.6,0.8c-0.2-0.3-0.3-0.5-0.3-0.6c-0.5-1.1-1-2.1-1.5-3.2h33.2V67v-2h-6.4h-14.7v4.2
		h-6.3v-2.7l27.6-28.4v-2.9V17.8L470.7,5.6z"/>
	<path id="XMLID_111_" class="st9" d="M436.8,40c0.1,0,0.1,0.1,0.2,0.1l0.1,0c0.3,0.2,0.6,0.4,0.9,0.5c1,0.6,2,1.2,2.9,1.8
		c0.2,0.1,0.4,0.3,0.5,0.4c1.1-0.6,2.5-1,4-1l7.6-7.9L429.8,34l-1.3,4.3c0.5-0.2,1-0.4,1.6-0.5c2.1-0.4,3.8-0.1,5.4,0.9l0,0
		C435.7,38.9,436.3,39.3,436.8,40 M423.4,59 M434.1,86.4C434.1,86.4,434.1,86.4,434.1,86.4C434.1,86.4,434.1,86.4,434.1,86.4
		 M390.4,85.5h30.9l-3.2,5c-0.2,0.3-0.4,0.6-0.6,0.9l-0.3,0.4c-0.3,0.4-0.6,0.9-0.9,1.3c0.8-0.8,1.7-1.5,2.5-2.3
		c0.9-0.8,1.8-1.7,2.7-2.5c1.1-1.1,2.3-2.3,3-3.7c0,0,0-0.1,0.1-0.4c0.2-1.6,1.5-2.7,2.1-3.1c1.2-0.9,2.3-0.9,3-0.8
		c0.9,0.2,1.8,0.7,2.4,1.5c0.2,0.2,0.3,0.4,0.4,0.6c0,0.1,0.1,0.2,0.1,0.2c1.3,1.7,1,3.8-0.7,5.1c-0.4,0.4-0.9,0.7-1.4,1.1
		c-0.4,0.4-0.8,0.7-1.2,1.1c-0.2,0.1-0.3,0.3-0.5,0.4c1.1-0.7,2.2-1.4,3.2-2.2c0.4-0.2,0.7-0.6,1.2-1c0.3-0.3,0.6-0.6,1-0.9
		c0,0,0.1-0.1,0.1-0.1l0.9-0.8h43.4V68.1h-14.9v4.2H451v-7.1l27.6-28.4V19l-9.3-10.3h-22.4l-11.1,9.6v9.4l15.3,0.1v-3.7h12.5v8.1
		l-16,16.6l-1.9-0.6c-0.6-0.1-1.2,0-2.4,0.9c-1.8,1.3-3.8,1-5.2-0.7l-0.2-0.2c-0.2-0.2-0.4-0.6-0.5-0.6c-0.8-0.5-1.6-1-2.6-1.6
		c-0.3-0.2-0.6-0.4-0.9-0.6l-0.1,0c-0.5-0.3-1.2-0.7-1.8-1.5c-0.1,0-0.4,0-0.7,0c0.1,1,0.4,1.8,0.8,2.3c1.5,2.1,1.1,5-1,6.7
		c0,0-0.2,0.2-0.3,0.2c-0.1,0.1-0.2,0.2-0.4,0.4l-1,0.9c-1.2,1.1-2.4,2.2-3.6,3.2c-0.6,0.5-1.2,0.8-1.6,0.9c0,0-0.1,0-0.1,0.1
		c-0.1,0.1-0.3,0.1-0.4,0.2c0,0-0.1,0-0.1,0.1c0,0,0,0.1-0.1,0.1c-0.1,0.1-0.2,0.2-0.3,0.3c-0.3,0.3-0.5,0.6-0.8,0.9
		c-0.4,0.5-0.8,0.9-1.2,1.4l-10.1,12.5l14.7-48.5V8.6h-42.7c0,4.3,0,12.5,0,19.1h14.1v-3.6h13.7l-15.4,48h-5V85.5z M410,99.5
		C410,99.5,410,99.5,410,99.5C410,99.5,410,99.5,410,99.5 M415.9,111.5h-0.8l-0.2,0c-0.3-0.1-0.7-0.1-1-0.2
		c-0.8-0.1-1.6-0.2-2.4-0.4c-1.4-0.2-2.8-0.5-4.1-0.8c-0.9-0.2-1.8-0.4-2.6-0.6c-0.3-0.1-0.7-0.2-1-0.2c-2.6-0.6-3-2.7-3-3.4
		c-0.1-1.2,0.3-2.2,1.1-3c0.1-0.1,0.3-0.3,0.4-0.4c0-0.5,0.2-1.1,0.4-1.5c0.7-1.4,1.6-2.9,3.3-3.9c0,0,0,0,0-0.1l0-0.1
		c0.1-0.2,0.3-0.5,0.5-0.8c0.1-0.3,0.3-0.5,0.4-0.8c0.4-0.8,1-1.3,1.5-1.6c0.4-0.7,0.8-1.4,1.2-2.1h-25.4V65.9h6.7L401.2,34h-24.3
		l0-3.1c0-0.1,0-6.4,0-12.7c0-3.7,0-6.6,0-8.7c0-1.3,0-2.2,0-2.9c0-0.4,0-0.7,0-0.9c0.1-2.6,2.1-3.3,3.1-3.3h0h52v11.1l12.5-10.9
		H472l12.8,14.1v22.8l-21.9,22.5h21.8v29.9h-29.5c0.2,0.7,0.4,1.3,0.4,2.1c0.1,1.5-0.8,2.9-1.6,3.5c-0.9,0.7-2.1,1.8-3.9,1.4
		c-1.7-0.4-2.3-1.7-2.7-2.4c0-0.1-0.1-0.2-0.1-0.3c-0.4-0.8-0.8-1.7-1.3-2.5c-0.3-0.6-0.6-1.2-0.9-1.7h-7.8c0,0,0,0,0,0
		c-0.5,0.5-1.2,1.1-1.9,1.6c-1.5,1-3,2-4.5,3c-0.7,0.5-1.4,0.9-2.1,1.4c-0.1,0.1-0.3,0.2-0.4,0.3c0.1,0.1,0.3,0.2,0.4,0.3
		c1,0.7,1.6,1.8,1.7,2.9c0.1,1.2-0.3,2.3-1.2,3.2c-0.2,0.2-0.3,0.3-0.4,0.4c-1,1.4-2.9,2.7-6.2,1.9c-0.8-0.2-1.7-0.4-2.5-0.6
		c-0.2,0.8-0.6,1.4-1,1.8c-0.3,1.7-1.4,2.9-3,3.3L415.9,111.5z"/>
	<path id="XMLID_21_" d="M469.1,96.2c-1,0-1.8,0.8-1.8,1.8c0,1,0.8,1.8,1.8,1.8c1,0,1.8-0.8,1.8-1.8
		C470.9,97.1,470.1,96.2,469.1,96.2"/>
	<path id="XMLID_107_" class="st9" d="M469.1,96.8c-0.7,0-1.3,0.6-1.3,1.3c0,0.7,0.6,1.3,1.3,1.3c0.7,0,1.3-0.6,1.3-1.3
		C470.4,97.4,469.8,96.8,469.1,96.8 M469.1,103c-2.7,0-5-2.2-5-5c0-2.7,2.2-5,5-5c2.7,0,5,2.2,5,5C474.1,100.8,471.8,103,469.1,103"
		/>
	<path id="XMLID_18_" class="st9" d="M388.6,87.3v-17h5.5l14.3-44.3H399v3.6h-17.7c0-8.2,0-19.2,0-22.8h46.3V26l-13.5,44.5h6.4v16.8
		H388.6z"/>
	<path id="XMLID_103_" class="st10" d="M380,5.5c-0.1,0-0.1,25.4-0.1,25.4h20.3v-3.6h6.3L393.2,69h-5.8v19.6h34.4V69.2h-5.9l13-43
		V5.5H380C380,5.5,380,5.5,380,5.5 M426.2,8.1v17.7l-12.9,42.6l-1,3.4h3.5h3.3V86h-29.2V71.6h3.2h1.9l0.6-1.8L409.1,28l1.1-3.4h-3.6
		h-6.3h-2.6v2.6v1h-15.1c0-7,0-16,0-20.2H426.2z"/>
	<polygon id="XMLID_15_" class="st9" points="432.9,87.4 432.9,61.4 461.7,31.5 461.7,25.9 452.9,25.9 452.9,29.7 434,29.6 
		434,17.5 446.2,6.9 470.1,6.9 480.4,18.3 480.4,37.6 452.8,65.9 452.8,70.5 461.7,70.5 461.7,66.3 480.3,66.3 480.3,87.4 	"/>
	<path id="XMLID_99_" class="st10" d="M470.7,5.6h-25l-13,11.3v13.9l21.5,0.1v-3.8h6.3V31l-28.8,29.8v27.8h49.9V65h-21.1v4.2h-6.3
		v-2.7l27.6-28.4V17.8L470.7,5.6z M469.5,8.2l9.6,10.6V37l-26.9,27.6l-0.7,0.8v1.1v2.7v2.6h2.6h6.3h2.6v-2.6v-1.6H479v18.4h-44.7
		V61.9l28.1-29.1L463,32V31v-6.4h-11.5v3.7l-16.3-0.1V18.1l11.4-9.9H469.5z"/>
	<polygon id="XMLID_12_" class="st11" points="481.6,67 475.2,70.4 475.2,65 460.4,65 460.4,69.2 454.1,69.2 454.1,66.5 481.7,38.1 
		481.7,35.2 464.1,50.2 460.4,29.3 460.4,31 431.6,60.8 431.6,88.7 481.6,88.7 	"/>
	<polygon id="XMLID_11_" class="st11" points="440.5,16.2 433,30.4 432.7,30 432.7,30.9 448,31 	"/>
	<polygon id="XMLID_10_" class="st11" points="460.1,27.2 459.4,23.3 456.9,27.2 	"/>
	<polygon id="XMLID_9_" class="st11" points="454.1,31 454.2,31 454.2,31 	"/>
	<polygon id="XMLID_8_" class="st11" points="420.3,23.3 415.5,50.5 404.6,40 404.6,70.5 394.3,65.4 393.2,69 387.3,69 387.3,88.6 
		421.8,88.6 421.8,69.2 415.8,69.2 426.7,33.2 	"/>
	<path id="XMLID_89_" d="M413.8,106.6c0,0.1,0,0.3,0,0.3c0.5,0.1,1,0.2,1.5,0.3c0,0,0.2-0.2,0.2-0.3c0-0.1-0.2-0.3-0.3-0.3
		C414.7,106.5,414.3,106.6,413.8,106.6 M421.5,102.2c0-0.1,0-0.2,0.1-0.2c-1.1-0.7-2.3-0.5-3.5-0.7c0,0.1,0,0.1,0,0.2
		C419.2,101.7,420.3,101.9,421.5,102.2 M409.3,104.6c-0.6,0.1-1.1,0.1-1.5,0.2c-0.1,0-0.3,0.3-0.3,0.5c0,0.1,0.2,0.3,0.3,0.4
		c1.2,0.2,2.5,0.5,3.7,0.7c0.1,0,0.3-0.1,0.4-0.1c-0.1-0.1-0.1-0.3-0.2-0.4c-0.3-0.2-0.7-0.5-1-0.7
		C410.2,105,409.7,104.8,409.3,104.6 M415.4,108.4c-1.1-0.2-2.3-0.3-3.4-0.5c-1.3-0.2-2.7-0.5-4-0.8c-1.2-0.2-2.4-0.5-3.5-0.8
		c-0.3-0.1-0.6-0.2-0.6-0.6c0-0.4,0.2-0.7,0.6-0.6c0.3,0,0.6,0.1,0.9,0.2c0.2,0,0.6,0,0.7-0.1c0.2-0.3,0.3-0.7,0-1.1
		c-0.2-0.3-0.5-0.6-0.6-0.9c-0.1-0.2-0.1-0.5,0-0.6c0.6-1.1,1.2-2.2,2.4-2.8c0.4-0.2,0.6-0.6,0.9-1c0.4-0.6,0.6-1.2,1-1.8
		c0.1-0.3,0.3-0.5,0.7-0.5c0.1,0,0.3-0.2,0.4-0.3c1.2-2.3,2.7-4.4,4.2-6.6c0.5-0.7,0.9-1.5,1.5-2.2c0.7-0.8,1.5-1.5,2.3-2.2
		c0.9-0.8,0.7-1.1,0.3-2.1c-0.1-0.4-0.2-1-0.9-0.9c-0.1,0-0.3-0.3-0.3-0.5c0-0.5,0-1,0-1.6c0-2.4-0.5-4.8-1.7-6.9
		c-1.1-1.8-1.3-3.8-1.3-5.9c0-0.7,0.3-1.4,0.5-2.1c0.6-1.9,1.8-3.4,2.9-5c0.8-1.1,1.7-2,2.6-3c0.3-0.3,0.5-0.7,0.8-0.9
		c0.3-0.3,0.7-0.4,1.1-0.6c0.3-0.2,0.7-0.3,1-0.5c1.5-1.4,3-2.8,4.5-4.1c0.3-0.2,0.5-0.5,0.8-0.7c0.7-0.5,1-1.5,0.4-2.4
		c-0.8-1.2-1.2-2.5-1.4-3.9c-0.2-1.6,0.7-3,2.5-3.3c1.1-0.2,2.2-0.1,3.2,0.5c0.2,0.1,0.4,0.2,0.4,0.4c0.3,0.5,0.8,0.8,1.3,1.1
		c1.2,0.7,2.5,1.4,3.7,2.3c0.5,0.4,1,1,1.4,1.5c0.3,0.4,0.5,0.4,0.9,0.1c1.4-1.1,2.9-1.8,4.9-1.5c1,0.2,1.6,0.8,2.3,1.3
		c0.8,0.5,1.5,1.1,2.2,1.7c0.9,0.6,1.1,1.9,0.4,2.8c-0.3,0.3-0.5,0.5-1,0.5c-0.8,0-0.9,0.1-1,0.8c-0.1,0.4-0.2,0.6-0.6,0.6
		c-0.5,0-0.7,0.4-0.9,0.8c-0.1,0.3-0.3,0.7-0.3,1c-0.1,0.5-0.4,0.7-0.8,0.7c-1.1,0-1.9,0.6-2.5,1.4c-0.1,0.2-0.2,0.5-0.1,0.7
		c0.1,0.8,0.2,1.6,0.3,2.4c0.1,0.8,0,1.5-0.6,2.2c-0.8,0.9-1.5,1.8-2.2,2.7c-0.1,0.1-0.2,0.2-0.2,0.3c0,0.8-0.6,1.2-1,1.7
		c-0.3,0.3-0.3,0.5,0.1,0.8c1.3,1,1.7,2.4,1.1,3.7c-0.1,0.3-0.5,0.5-0.7,0.8c-0.1,0.2-0.2,0.4-0.1,0.6c0.8,1.7,1.6,3.3,2.4,4.9
		c1.5,3,2.9,6,4.4,9c0.8,1.7,1.6,3.5,2.5,5.2c0.1,0.2,0.2,0.4,0.3,0.6c0.2-0.3,0.4-0.6,0.6-0.8c0.3-0.4,0.5-0.4,0.8,0
		c0.5,0.7,0.8,1.5,0.9,2.4c0,0.3-0.2,0.7-0.5,0.9c-1.4,1.1-1.3,0.9-1.9-0.3c-0.9-1.7-1.7-3.4-2.5-5.1c-0.6-1.3-1.3-2.5-2-3.8
		c-1-2-2-4-3-6c-0.5-1.1-1.1-2.1-1.6-3.2c-0.5-1-1-2-1.5-3c-0.1-0.3-0.2-0.4-0.6-0.2c-0.6,0.4-1.2,0.3-1.8,0
		c-0.6-0.2-1.2-0.6-1.8-0.9c-0.1-0.1-0.2-0.1-0.3-0.2c-0.3-0.5-0.7-0.5-1.2-0.5c-0.5,0-0.9-0.1-1.4-0.1c-0.1,0-0.3,0-0.3,0.1
		c0,0.1,0,0.2,0.1,0.3c1.4,1.7,2.1,3.7,2.9,5.7c0.2,0.5,0.3,1,0.4,1.5c0.1,0.3,0.3,0.6,0.6,0.8c1.7,1.4,2.5,3.2,1.9,5.3
		c-0.3,1.2-1,2.3-1.9,3.1c-0.8,0.7-1.5,1.5-2.4,2.1c-2.2,1.5-4.4,2.9-6.6,4.4c-0.7,0.4-1.3,0.9-1.9,1.3c-0.8,0.5-1.2,1.3-1.4,2.2
		c-0.1,0.4,0,0.7,0.4,0.9c0.6,0.2,1.2,0.4,1.8,0.7c0.4,0.1,0.7,0.3,1,0.6c0.6,0.4,0.6,1,0.1,1.5c-0.2,0.2-0.4,0.3-0.5,0.5
		c-0.8,1.2-1.9,1.2-3.1,0.9c-1.9-0.4-3.9-0.8-5.8-1.3c-0.8-0.2-1.6-0.4-2.4-0.7c-0.2,0-0.3-0.2-0.4-0.4c0.2-0.2,0.3-0.4,0.6-0.5
		c0.2-0.1,0.5,0.1,0.8,0.1c0.4,0,0.6-0.2,0.4-0.5c-0.6-1.3-0.4-2,0.7-2.9c1-0.9,2.1-1.8,3-2.8c1.2-1.3,2.3-2.8,3.5-4.1
		c1.4-1.4,2.9-2.7,4.4-4.1c0.5-0.4,1-0.9,1.5-1.3c0.3-0.2,0.3-0.4,0.1-0.7c-0.2-0.3-0.4-0.6-0.6-0.9c-0.1-0.1-0.2-0.2-0.4-0.3
		c-0.4-0.1-1.4,0.8-1.5,1.3c-0.1,0.4-0.2,0.9-0.3,1.2c-0.9,1.8-2.2,3.3-3.7,4.6c-2.3,2.2-4.7,4.3-6.9,6.4c-1.2,1.1-2.2,2.3-3.3,3.5
		c-0.6,0.7-0.6,1.1,0.1,1.6c1,0.7,2,1.2,3.1,1.8c0.4,0.2,0.9,0.4,0.8,1c0,0.5-0.1,1.1-0.7,1.3c-0.2,0.1-0.3,0.3-0.3,0.5
		c-0.1,0.2,0,0.4-0.1,0.7c-0.1,0.5-0.2,0.9-0.8,1H415.4z"/>
	<circle id="XMLID_3_" class="st12" cx="469.1" cy="98.1" r="1.8"/>
	<path id="XMLID_85_" d="M468.6,97.9h0.6c0.1,0,0.2,0,0.3,0s0.1-0.1,0.2-0.1c0-0.1,0.1-0.1,0.1-0.2c0-0.1,0-0.2-0.1-0.2
		c-0.1-0.1-0.2-0.1-0.3-0.1h-0.6V97.9z M468.4,99v-2h0.9c0.2,0,0.3,0,0.4,0.1c0.1,0,0.2,0.1,0.2,0.2c0.1,0.1,0.1,0.2,0.1,0.3
		c0,0.1,0,0.3-0.1,0.4c-0.1,0.1-0.2,0.2-0.4,0.2c0.1,0,0.1,0.1,0.2,0.1c0.1,0.1,0.2,0.2,0.2,0.3l0.4,0.6h-0.3l-0.3-0.4
		c-0.1-0.1-0.1-0.2-0.2-0.3c-0.1-0.1-0.1-0.1-0.1-0.1c0,0-0.1,0-0.1-0.1c0,0-0.1,0-0.1,0h-0.3V99H468.4z"/>
</g>
</svg>
