<?xml version="1.0" encoding="utf-8"?>
<!-- Generator: Adobe Illustrator 21.0.2, SVG Export Plug-In . SVG Version: 6.00 Build 0)  -->
<svg version="1.1" id="Layer_1" xmlns="http://www.w3.org/2000/svg" xmlns:xlink="http://www.w3.org/1999/xlink" x="0px" y="0px"
	 viewBox="0 0 329 96" style="enable-background:new 0 0 329 96;" xml:space="preserve">
<style type="text/css">
	.st0{fill:#D52027;}
	.st1{font-family:'LeagueGothic-Regular';}
	.st2{font-size:37.9161px;}
	.st3{fill:#E1E1E1;}
	.st4{fill:none;enable-background:new    ;}
	.st5{font-size:36px;}
	.st6{fill:#FFFFFF;}
	.st7{fill:#241F21;}
	.st8{fill:#CF262E;}
	.st9{fill:none;stroke:#000000;stroke-width:0.135;stroke-miterlimit:10;}
</style>
<g id="Team_Canada_Logo">
	<text id="TEAM_CANADA_1972" transform="matrix(1 0 0 1 116.8025 36.2227)" class="st0 st1 st2">TEAM CANADA 1972</text>
	<path id="Shape_2_copy_4" class="st3" d="M108,45v-1h220v1H108z"/>
</g>
<image style="display:none;overflow:visible;" width="95" height="96" xlink:href="8D8BC809B07454E5.png" >
</image>
<path class="st4" d="z"/>
<g id="Equipe_Canada_Logo">
	<text id="ÉQUIPE_CANADA_1972" transform="matrix(1 0 0 1 115.449 84.561)" class="st0 st1 st5">ÉQUIPE CANADA 1972</text>
</g>
<g>
	<path id="XMLID_118_" d="M43.2,88.5c-1-0.2-2-0.4-3-0.7c0-0.1,0-0.1,0-0.2c1,0.2,2.1,0.1,3,0.6C43.3,88.3,43.3,88.4,43.2,88.5
		 M37.9,92.2c0.1,0,0.2,0.1,0.3,0.2c0,0.1-0.1,0.3-0.2,0.3c-0.4-0.1-0.9-0.2-1.3-0.3c0,0,0-0.1,0-0.2C37.1,92.2,37.5,92.2,37.9,92.2
		 M34.7,92c-1.1-0.2-2.1-0.4-3.2-0.6c-0.1,0-0.3-0.2-0.3-0.3c0-0.2,0.1-0.4,0.3-0.4c0.4-0.1,0.8-0.1,1.3-0.2
		c0.3,0.1,0.8,0.3,1.2,0.5c0.3,0.2,0.6,0.4,0.9,0.6c0.1,0.1,0.1,0.2,0.2,0.3C34.9,92,34.8,92,34.7,92 M85.3,5.8H63.9l-11.1,9.7v11.2
		v0.7l13.1,0.1l5.3,0v0v-3.2h2.3h2.8h0.3v1.8v1.4L64.8,39.8c-0.1,0-0.2-0.1-0.3-0.1c-1.6-0.3-2.9,0.4-4.2,1.3
		c-0.3,0.3-0.5,0.2-0.7-0.1c-0.4-0.5-0.7-0.9-1.2-1.3c-1-0.7-2.1-1.3-3.1-1.9c-0.4-0.3-0.8-0.5-1.1-1c-0.1-0.1-0.2-0.2-0.4-0.3
		C52.9,35.9,52,35.8,51,36c-1.5,0.3-2.3,1.4-2.1,2.8c0.2,1.2,0.5,2.4,1.2,3.4c0.5,0.7,0.2,1.6-0.3,2c-0.2,0.2-0.5,0.4-0.7,0.6
		c-1.3,1.2-2.6,2.4-3.9,3.5c-0.2,0.2-0.6,0.3-0.9,0.4c-0.3,0.2-0.7,0.3-1,0.5c-0.3,0.2-0.5,0.5-0.7,0.8c-0.6,0.7-1.2,1.4-1.8,2.1
		l6.9-22.8l1.8-6V5.7H7.7h0c-0.1,0-0.1,21.7-0.1,21.7h17.4v-3.1h5.4L19,60h-5v16.8h24.2c-0.2,0.3-0.4,0.6-0.6,0.8
		c-1.3,1.8-2.6,3.6-3.6,5.6c-0.1,0.1-0.2,0.3-0.3,0.3c-0.3,0-0.5,0.2-0.6,0.4c-0.3,0.5-0.5,1-0.8,1.5c-0.2,0.3-0.4,0.7-0.7,0.9
		c-1,0.5-1.6,1.4-2.1,2.4c-0.1,0.1-0.1,0.4,0,0.5c0.1,0.3,0.3,0.5,0.5,0.8c0.3,0.3,0.2,0.6,0,0.9c-0.1,0.1-0.4,0.1-0.6,0.1
		c-0.2,0-0.5-0.1-0.7-0.1c-0.4,0-0.6,0.2-0.5,0.5c0,0.3,0.3,0.4,0.5,0.5c1,0.2,2,0.5,3,0.7c1.1,0.2,2.3,0.5,3.4,0.7
		c1,0.2,1.9,0.3,2.9,0.4h0.1c0.4-0.1,0.6-0.4,0.6-0.9c0-0.2,0-0.4,0.1-0.6c0-0.2,0.1-0.4,0.3-0.4c0.5-0.2,0.6-0.7,0.6-1.1
		c0-0.5-0.4-0.6-0.7-0.8c-0.9-0.5-1.8-1-2.6-1.6c-0.6-0.4-0.6-0.8-0.1-1.4c0.9-1,1.8-2,2.8-3c2-1.9,4-3.7,5.9-5.5
		c1.2-1.2,2.4-2.4,3.1-4c0.2-0.3,0.2-0.7,0.3-1.1c0.1-0.4,0.9-1.2,1.3-1.1c0.1,0,0.2,0.1,0.3,0.2c0.2,0.3,0.3,0.5,0.5,0.8
		c0.2,0.3,0.2,0.4-0.1,0.6c-0.4,0.3-0.9,0.7-1.3,1.1c-1.3,1.2-2.6,2.3-3.8,3.5c-1.1,1.1-2,2.4-3,3.5c-0.8,0.9-1.7,1.6-2.6,2.4
		c-1,0.8-1.1,1.4-0.6,2.5c0.1,0.3,0,0.5-0.4,0.5c-0.2,0-0.5-0.1-0.7-0.1c-0.2,0.1-0.3,0.3-0.5,0.4c0.1,0.1,0.2,0.3,0.3,0.3
		c0.7,0.2,1.4,0.4,2.1,0.6c1.6,0.4,3.3,0.7,5,1.1c1,0.2,2,0.2,2.6-0.8c0.1-0.2,0.3-0.3,0.5-0.4c0.4-0.4,0.4-0.9-0.1-1.3
		c-0.3-0.2-0.6-0.4-0.9-0.5c-0.5-0.2-1-0.4-1.5-0.6c-0.3-0.1-0.4-0.4-0.3-0.8c0.2-0.8,0.5-1.4,1.2-1.9c0.6-0.4,1.1-0.8,1.6-1.1
		c1.9-1.2,3.8-2.5,5.6-3.7c0.7-0.5,1.4-1.2,2.1-1.8c0,0,0.1,0,0.1-0.1h9.3c0.1,0.2,0.3,0.5,0.4,0.7c0.7,1.5,1.4,2.9,2.2,4.4
		c0.5,1,0.5,1.2,1.6,0.3c0.2-0.2,0.4-0.5,0.4-0.8c0-0.7-0.3-1.5-0.8-2.1c-0.3-0.3-0.4-0.3-0.7,0c-0.2,0.2-0.3,0.4-0.5,0.7
		c-0.1-0.2-0.2-0.4-0.3-0.6c-0.4-0.9-0.8-1.8-1.3-2.7h28.4V58.3v-1.7h-5.5H76.6v3.6h-5.4v-2.3l23.6-24.3v-2.5V16.2L85.3,5.8z"/>
	<path id="XMLID_111_" class="st6" d="M56.3,35.2c0.1,0,0.1,0.1,0.2,0.1l0.1,0c0.3,0.2,0.5,0.3,0.8,0.5c0.8,0.5,1.7,1,2.5,1.6
		c0.2,0.1,0.3,0.2,0.5,0.4c1-0.5,2.1-0.9,3.5-0.8l6.5-6.7l-20-0.1l-1.1,3.7c0.4-0.2,0.9-0.3,1.3-0.4c1.8-0.3,3.3-0.1,4.6,0.8l0,0
		C55.4,34.3,55.9,34.6,56.3,35.2 M44.9,51.5 M54,74.9C54,74.9,54,74.9,54,74.9C54,74.9,54,74.9,54,74.9 M16.7,74.1h26.4l-2.8,4.3
		c-0.2,0.3-0.3,0.5-0.5,0.8l-0.3,0.4c-0.3,0.4-0.5,0.8-0.8,1.1c0.7-0.7,1.4-1.3,2.1-2c0.8-0.7,1.5-1.4,2.3-2.1c1-0.9,2-1.9,2.5-3.1
		c0,0,0-0.1,0.1-0.3c0.2-1.4,1.3-2.3,1.8-2.6c1-0.8,2-0.8,2.6-0.7c0.8,0.1,1.5,0.6,2,1.3c0.1,0.2,0.3,0.4,0.3,0.5
		c0,0.1,0.1,0.2,0.1,0.2c1.1,1.4,0.8,3.2-0.6,4.3c-0.4,0.3-0.8,0.6-1.2,1c-0.3,0.3-0.7,0.6-1,0.9c-0.1,0.1-0.3,0.3-0.4,0.4
		c0.9-0.6,1.9-1.2,2.7-1.8c0.3-0.2,0.6-0.5,1-0.9c0.3-0.2,0.5-0.5,0.8-0.8c0,0,0.1,0,0.1-0.1l0.8-0.7H92V59.3H79.2v3.6H68.5v-6.1
		l23.6-24.3V17.2l-8-8.8H64.9l-9.5,8.2v8l13.1,0.1v-3.2h10.7v7L65.5,42.8l-1.6-0.5c-0.5-0.1-1,0-2.1,0.8c-1.5,1.1-3.3,0.9-4.4-0.6
		l-0.1-0.2c-0.1-0.2-0.4-0.5-0.5-0.5c-0.7-0.5-1.4-0.9-2.2-1.4c-0.3-0.2-0.5-0.3-0.8-0.5l-0.1,0c-0.4-0.2-1-0.6-1.6-1.3
		c-0.1,0-0.3,0-0.6,0c0.1,0.9,0.3,1.5,0.7,2c1.3,1.8,0.9,4.3-0.9,5.7c0,0-0.1,0.1-0.2,0.2c-0.1,0.1-0.2,0.2-0.3,0.3L50,47.6
		c-1,0.9-2,1.8-3,2.8c-0.5,0.4-1,0.7-1.3,0.8c0,0-0.1,0-0.1,0c-0.1,0.1-0.2,0.1-0.4,0.2c0,0-0.1,0-0.1,0.1c0,0,0,0-0.1,0.1
		c-0.1,0.1-0.2,0.2-0.2,0.3c-0.2,0.3-0.5,0.5-0.7,0.8c-0.4,0.4-0.7,0.8-1,1.2l-8.6,10.7L46.9,23V8.3H10.4c0,3.7,0,10.7,0,16.4h12
		v-3.1h11.8L20.9,62.7h-4.3V74.1z M33.4,86.2C33.4,86.2,33.4,86.2,33.4,86.2C33.4,86.2,33.4,86.2,33.4,86.2 M38.4,96.4h-0.6l-0.2,0
		c-0.3,0-0.6-0.1-0.9-0.1c-0.7-0.1-1.4-0.2-2.1-0.3c-1.2-0.2-2.4-0.4-3.5-0.7c-0.8-0.2-1.5-0.3-2.2-0.5c-0.3-0.1-0.6-0.1-0.9-0.2
		c-2.3-0.5-2.6-2.3-2.6-2.9c-0.1-1,0.2-1.9,0.9-2.5c0.1-0.1,0.2-0.2,0.4-0.3c0-0.5,0.1-0.9,0.4-1.3c0.6-1.2,1.4-2.4,2.8-3.3
		c0,0,0,0,0-0.1l0-0.1c0.1-0.2,0.3-0.5,0.4-0.7c0.1-0.2,0.2-0.5,0.4-0.7c0.4-0.7,0.8-1.1,1.3-1.4c0.3-0.6,0.7-1.2,1.1-1.8H11.3V57.4
		h5.7l8.8-27.3H5l0-2.7c0-0.1,0-5.5,0-10.9c0-3.2,0-5.7,0-7.5C5,8,5,7.1,5,6.6c0-0.3,0-0.6,0-0.7C5.1,3.6,6.8,3,7.7,3h0h44.5v9.5
		l10.7-9.4h23.6l11,12.1v19.5L78.7,54h18.6v25.6H72.1c0.2,0.6,0.3,1.2,0.4,1.8c0.1,1.3-0.7,2.4-1.4,3c-0.8,0.6-1.8,1.5-3.3,1.2
		c-1.4-0.3-2-1.5-2.3-2.1c0-0.1-0.1-0.1-0.1-0.2c-0.4-0.7-0.7-1.5-1.1-2.2c-0.2-0.5-0.5-1-0.7-1.5h-6.7c0,0,0,0,0,0
		c-0.5,0.4-1,0.9-1.6,1.4c-1.3,0.9-2.6,1.8-3.9,2.6c-0.6,0.4-1.2,0.8-1.8,1.2c-0.1,0.1-0.2,0.2-0.4,0.2c0.1,0.1,0.2,0.2,0.4,0.3
		c0.8,0.6,1.3,1.5,1.4,2.5c0.1,1-0.3,2-1,2.7c-0.1,0.1-0.3,0.2-0.4,0.3c-0.9,1.2-2.5,2.3-5.3,1.7c-0.7-0.2-1.5-0.3-2.2-0.5
		c-0.2,0.7-0.5,1.2-0.9,1.5c-0.3,1.4-1.2,2.5-2.6,2.8L38.4,96.4z"/>
	<path id="XMLID_21_" d="M84,83.4c-0.9,0-1.6,0.7-1.6,1.6c0,0.9,0.7,1.6,1.6,1.6c0.9,0,1.6-0.7,1.6-1.6C85.6,84.1,84.9,83.4,84,83.4
		"/>
	<path id="XMLID_107_" class="st6" d="M84,83.8c-0.6,0-1.1,0.5-1.1,1.1c0,0.6,0.5,1.1,1.1,1.1c0.6,0,1.1-0.5,1.1-1.1
		C85.1,84.3,84.6,83.8,84,83.8 M84,89.2c-2.3,0-4.3-1.9-4.3-4.3c0-2.3,1.9-4.3,4.3-4.3c2.3,0,4.3,1.9,4.3,4.3
		C88.2,87.3,86.3,89.2,84,89.2"/>
	<path id="XMLID_18_" class="st6" d="M15.1,75.7V61.1h4.7l12.2-38H24v3.1H8.8c0-7,0-16.4,0-19.5h39.6v16.5L36.9,61.3h5.4v14.4H15.1z
		"/>
	<path id="XMLID_103_" class="st7" d="M7.7,5.7c-0.1,0-0.1,21.7-0.1,21.7h17.4v-3.1h5.4L19,60h-5v16.8h29.5V60.2h-5.1l11.1-36.8V5.7
		H7.7C7.7,5.7,7.7,5.7,7.7,5.7 M47.3,7.9v15.2l-11,36.5l-0.9,2.9h3h2.8v12.1h-25V62.3H19h1.6l0.5-1.5L32.6,25l0.9-2.9h-3.1h-5.4
		h-2.2v2.2v0.9H9.9c0-6,0-13.7,0-17.3H47.3z"/>
	<polygon id="XMLID_15_" class="st6" points="53,75.8 53,53.5 77.7,28 77.7,23.2 70.1,23.2 70.1,26.4 53.9,26.3 53.9,16 64.4,6.9 
		84.8,6.9 93.7,16.6 93.7,33.1 70,57.4 70,61.3 77.7,61.3 77.7,57.7 93.5,57.7 93.5,75.8 	"/>
	<path id="XMLID_99_" class="st7" d="M85.3,5.8H63.9l-11.1,9.7v11.9l18.4,0.1v-3.2h5.4v3.2L51.9,53.1v23.8h42.7V56.6H76.6v3.6h-5.4
		v-2.3l23.6-24.3V16.2L85.3,5.8z M84.3,8l8.2,9v15.6l-23,23.6L68.9,57v0.9v2.3v2.2h2.2h5.4h2.2v-2.2v-1.3h13.6v15.8H54.2V54l24-24.9
		l0.6-0.6v-0.9v-5.4H69v3.2L55,25.2v-8.7L64.8,8H84.3z"/>
	<polygon id="XMLID_12_" class="st8" points="94.7,58.3 89.2,61.2 89.2,56.6 76.6,56.6 76.6,60.2 71.1,60.2 71.1,57.9 94.8,33.6 
		94.8,31.1 79.7,44 76.6,26.1 76.6,27.5 51.9,53.1 51.9,76.9 94.7,76.9 	"/>
	<polygon id="XMLID_11_" class="st8" points="59.5,14.9 53,27 52.8,26.7 52.8,27.4 65.9,27.5 	"/>
	<polygon id="XMLID_10_" class="st8" points="76.3,24.3 75.7,20.9 73.5,24.3 	"/>
	<polygon id="XMLID_9_" class="st8" points="71.2,27.5 71.2,27.5 71.2,27.5 	"/>
	<polygon id="XMLID_8_" class="st8" points="42.2,20.9 38.1,44.2 28.8,35.3 28.8,61.3 20,57 19,60 14,60 14,76.8 43.5,76.8 
		43.5,60.2 38.4,60.2 47.7,29.4 	"/>
	<path id="XMLID_89_" d="M36.6,92.2c0,0.1,0,0.2,0,0.2c0.4,0.1,0.9,0.2,1.3,0.3c0,0,0.2-0.2,0.2-0.3c0-0.1-0.2-0.2-0.3-0.2
		C37.5,92.2,37.1,92.2,36.6,92.2 M43.2,88.5c0-0.1,0-0.1,0-0.2c-0.9-0.6-2-0.5-3-0.6c0,0.1,0,0.1,0,0.2C41.3,88,42.3,88.2,43.2,88.5
		 M32.8,90.5c-0.5,0.1-0.9,0.1-1.3,0.2c-0.1,0-0.2,0.3-0.3,0.4c0,0.1,0.2,0.3,0.3,0.3c1,0.2,2.1,0.4,3.2,0.6c0.1,0,0.2-0.1,0.3-0.1
		c-0.1-0.1-0.1-0.2-0.2-0.3c-0.3-0.2-0.6-0.4-0.9-0.6C33.6,90.9,33.1,90.7,32.8,90.5 M38,93.8c-1-0.1-1.9-0.3-2.9-0.4
		c-1.1-0.2-2.3-0.4-3.4-0.7c-1-0.2-2-0.5-3-0.7c-0.3-0.1-0.5-0.2-0.5-0.5c0-0.4,0.2-0.6,0.5-0.5c0.2,0,0.5,0.1,0.7,0.1
		c0.2,0,0.6,0,0.6-0.1c0.1-0.3,0.3-0.6,0-0.9c-0.2-0.2-0.4-0.5-0.5-0.8c-0.1-0.1-0.1-0.4,0-0.5c0.5-1,1-1.8,2.1-2.4
		c0.3-0.2,0.5-0.5,0.7-0.9c0.3-0.5,0.5-1,0.8-1.5c0.1-0.2,0.3-0.5,0.6-0.4c0.1,0,0.3-0.1,0.3-0.3c1-2,2.3-3.8,3.6-5.6
		c0.4-0.6,0.8-1.3,1.3-1.9c0.6-0.7,1.3-1.3,2-1.9c0.8-0.7,0.6-0.9,0.3-1.8c-0.1-0.3-0.2-0.8-0.8-0.7c-0.1,0-0.3-0.2-0.3-0.4
		c0-0.4,0-0.9,0-1.3c0-2.1-0.4-4.1-1.5-5.9c-0.9-1.6-1.1-3.3-1.1-5c0-0.6,0.2-1.2,0.4-1.8c0.5-1.6,1.5-3,2.5-4.3
		c0.7-0.9,1.5-1.7,2.2-2.6c0.2-0.3,0.4-0.6,0.7-0.8c0.3-0.2,0.6-0.3,1-0.5c0.3-0.1,0.6-0.2,0.9-0.4c1.3-1.2,2.6-2.4,3.9-3.5
		c0.2-0.2,0.4-0.4,0.7-0.6c0.6-0.5,0.9-1.3,0.3-2c-0.7-1-1-2.2-1.2-3.4c-0.2-1.4,0.6-2.5,2.1-2.8c1-0.2,1.9-0.1,2.8,0.4
		c0.1,0.1,0.3,0.2,0.4,0.3c0.2,0.5,0.7,0.7,1.1,1c1.1,0.6,2.1,1.2,3.1,1.9c0.5,0.3,0.8,0.8,1.2,1.3c0.2,0.3,0.4,0.3,0.7,0.1
		c1.2-0.9,2.5-1.6,4.2-1.3c0.8,0.1,1.3,0.7,2,1.1c0.7,0.5,1.3,1,1.9,1.4c0.8,0.5,1,1.7,0.3,2.4c-0.2,0.3-0.4,0.5-0.8,0.5
		c-0.6,0-0.8,0.1-0.9,0.7c-0.1,0.3-0.2,0.5-0.5,0.5c-0.5,0-0.6,0.4-0.8,0.7c-0.1,0.3-0.2,0.6-0.3,0.9c0,0.4-0.3,0.6-0.7,0.6
		c-0.9,0-1.6,0.5-2.1,1.2c-0.1,0.1-0.1,0.4-0.1,0.6c0.1,0.7,0.2,1.4,0.3,2.1c0.1,0.7,0,1.3-0.5,1.9c-0.7,0.7-1.3,1.5-1.9,2.3
		c-0.1,0.1-0.2,0.2-0.2,0.3c0,0.7-0.5,1.1-0.9,1.5c-0.3,0.3-0.3,0.4,0.1,0.7c1.1,0.8,1.5,2,1,3.1c-0.1,0.3-0.4,0.4-0.6,0.7
		c-0.1,0.1-0.2,0.4-0.1,0.5c0.7,1.4,1.4,2.8,2.1,4.2c1.3,2.6,2.5,5.1,3.8,7.7c0.7,1.5,1.4,3,2.1,4.5c0.1,0.2,0.2,0.3,0.3,0.6
		c0.2-0.3,0.4-0.5,0.5-0.7c0.3-0.3,0.4-0.4,0.7,0c0.5,0.6,0.7,1.3,0.8,2.1c0,0.3-0.2,0.6-0.4,0.8c-1.2,1-1.1,0.8-1.6-0.3
		c-0.7-1.5-1.4-2.9-2.2-4.4c-0.5-1.1-1.2-2.1-1.7-3.2c-0.9-1.7-1.7-3.4-2.5-5.1c-0.5-0.9-0.9-1.8-1.4-2.7c-0.4-0.8-0.9-1.7-1.3-2.5
		c-0.1-0.3-0.2-0.3-0.5-0.1c-0.5,0.3-1,0.2-1.5,0c-0.5-0.2-1-0.5-1.5-0.7c-0.1,0-0.2-0.1-0.2-0.2c-0.2-0.4-0.6-0.4-1-0.4
		c-0.4,0-0.8-0.1-1.2-0.1c-0.1,0-0.2,0-0.3,0.1c0,0.1,0,0.2,0.1,0.3c1.2,1.5,1.8,3.2,2.5,4.9c0.2,0.4,0.2,0.9,0.4,1.3
		c0.1,0.3,0.3,0.5,0.5,0.7c1.5,1.2,2.1,2.7,1.7,4.6c-0.3,1-0.8,2-1.7,2.7c-0.7,0.6-1.3,1.3-2.1,1.8c-1.8,1.3-3.8,2.5-5.6,3.7
		c-0.6,0.4-1.1,0.8-1.6,1.1c-0.7,0.5-1,1.1-1.2,1.9c-0.1,0.4,0,0.6,0.3,0.8c0.5,0.2,1,0.4,1.5,0.6c0.3,0.1,0.6,0.3,0.9,0.5
		c0.5,0.4,0.5,0.8,0.1,1.3c-0.1,0.2-0.3,0.3-0.5,0.4c-0.7,1-1.6,1-2.6,0.8c-1.6-0.4-3.3-0.7-4.9-1.1c-0.7-0.2-1.4-0.4-2.1-0.6
		c-0.1,0-0.2-0.2-0.3-0.3c0.2-0.2,0.3-0.4,0.5-0.4c0.2-0.1,0.4,0,0.7,0.1c0.3,0,0.5-0.2,0.4-0.5c-0.5-1.1-0.4-1.7,0.6-2.5
		c0.9-0.8,1.8-1.5,2.6-2.4c1-1.1,1.9-2.4,3-3.5c1.2-1.2,2.5-2.3,3.8-3.5c0.4-0.4,0.9-0.7,1.3-1.1c0.3-0.2,0.3-0.4,0.1-0.6
		c-0.2-0.2-0.3-0.5-0.5-0.8c-0.1-0.1-0.2-0.2-0.3-0.2c-0.4-0.1-1.2,0.7-1.3,1.1c-0.1,0.4-0.1,0.7-0.3,1.1c-0.7,1.6-1.9,2.8-3.1,4
		c-2,1.8-4,3.7-5.9,5.5c-1,0.9-1.9,2-2.8,3c-0.5,0.6-0.5,0.9,0.1,1.4c0.8,0.6,1.8,1.1,2.6,1.6c0.3,0.2,0.7,0.3,0.7,0.8
		c0,0.5-0.1,0.9-0.6,1.1c-0.1,0.1-0.2,0.3-0.3,0.4c-0.1,0.2,0,0.4-0.1,0.6C38.7,93.3,38.5,93.7,38,93.8L38,93.8z"/>
	<circle id="XMLID_3_" class="st9" cx="84" cy="84.9" r="1.5"/>
	<path id="XMLID_85_" d="M83.6,84.8h0.5c0.1,0,0.2,0,0.2,0s0.1-0.1,0.1-0.1c0,0,0-0.1,0-0.2c0-0.1,0-0.2-0.1-0.2
		c-0.1-0.1-0.2-0.1-0.3-0.1h-0.6V84.8z M83.3,85.8V84h0.8c0.2,0,0.3,0,0.4,0c0.1,0,0.1,0.1,0.2,0.2c0,0.1,0.1,0.2,0.1,0.3
		c0,0.1,0,0.2-0.1,0.3c-0.1,0.1-0.2,0.1-0.4,0.2c0.1,0,0.1,0.1,0.1,0.1c0.1,0.1,0.1,0.1,0.2,0.2l0.3,0.5h-0.3l-0.2-0.4
		c-0.1-0.1-0.1-0.2-0.2-0.2c0-0.1-0.1-0.1-0.1-0.1c0,0-0.1,0-0.1,0c0,0-0.1,0-0.1,0h-0.3v0.8H83.3z"/>
</g>
</svg>
